<?xml version="1.0" encoding="UTF-8" standalone="no"?>
<!DOCTYPE svg PUBLIC "-//W3C//DTD SVG 1.1//EN"
 "http://www.w3.org/Graphics/SVG/1.1/DTD/svg11.dtd">
<!-- Generated by graphviz version 2.43.0 (0)
 -->
<!-- Title: Trie Pages: 1 -->
<svg width="1070pt" height="479pt"
 viewBox="0.00 0.00 1070.00 479.00" xmlns="http://www.w3.org/2000/svg" xmlns:xlink="http://www.w3.org/1999/xlink">
<g id="graph0" class="graph" transform="scale(1 1) rotate(0) translate(4 475)">
<title>Trie</title>
<polygon fill="white" stroke="transparent" points="-4,4 -4,-475 1066,-475 1066,4 -4,4"/>
<!-- Node_0 -->
<g id="node1" class="node">
<title>Node_0</title>
<ellipse fill="none" stroke="black" cx="603" cy="-453" rx="27" ry="18"/>
<text text-anchor="middle" x="603" y="-449.3" font-family="Times,serif" font-size="14.00">^</text>
</g>
<!-- Node_11 -->
<g id="node2" class="node">
<title>Node_11</title>
<ellipse fill="none" stroke="black" cx="99" cy="-366" rx="27" ry="18"/>
<text text-anchor="middle" x="99" y="-362.3" font-family="Times,serif" font-size="14.00">b</text>
</g>
<!-- Node_0&#45;&gt;Node_11 -->
<g id="edge1" class="edge">
<title>Node_0&#45;&gt;Node_11</title>
<path fill="none" stroke="black" d="M576.67,-448.86C530.05,-443.21 430.01,-430.63 346,-417 267.87,-404.32 248.42,-400.43 171,-384 158.85,-381.42 145.61,-378.37 133.84,-375.56"/>
<polygon fill="black" stroke="black" points="134.47,-372.11 123.93,-373.18 132.83,-378.92 134.47,-372.11"/>
<text text-anchor="middle" x="351" y="-405.8" font-family="Times,serif" font-size="14.00">b</text>
</g>
<!-- Node_1 -->
<g id="node9" class="node">
<title>Node_1</title>
<ellipse fill="none" stroke="black" cx="207" cy="-366" rx="27" ry="18"/>
<text text-anchor="middle" x="207" y="-362.3" font-family="Times,serif" font-size="14.00">c</text>
</g>
<!-- Node_0&#45;&gt;Node_1 -->
<g id="edge8" class="edge">
<title>Node_0&#45;&gt;Node_1</title>
<path fill="none" stroke="black" d="M577.47,-446.96C543.7,-440.27 482.33,-428.01 430,-417 362.78,-402.86 345.99,-399.23 279,-384 266.89,-381.25 253.66,-378.15 241.88,-375.36"/>
<polygon fill="black" stroke="black" points="242.51,-371.91 231.97,-373 240.89,-378.72 242.51,-371.91"/>
<text text-anchor="middle" x="434" y="-405.8" font-family="Times,serif" font-size="14.00">c</text>
</g>
<!-- Node_4 -->
<g id="node12" class="node">
<title>Node_4</title>
<ellipse fill="none" stroke="black" cx="315" cy="-366" rx="27" ry="18"/>
<text text-anchor="middle" x="315" y="-362.3" font-family="Times,serif" font-size="14.00">d</text>
</g>
<!-- Node_0&#45;&gt;Node_4 -->
<g id="edge11" class="edge">
<title>Node_0&#45;&gt;Node_4</title>
<path fill="none" stroke="black" d="M578.45,-444.75C527.12,-429.6 408.35,-394.55 349.43,-377.16"/>
<polygon fill="black" stroke="black" points="350.07,-373.7 339.49,-374.23 348.09,-380.42 350.07,-373.7"/>
<text text-anchor="middle" x="482" y="-405.8" font-family="Times,serif" font-size="14.00">d</text>
</g>
<!-- Node_7 -->
<g id="node18" class="node">
<title>Node_7</title>
<ellipse fill="none" stroke="black" cx="459" cy="-366" rx="27" ry="18"/>
<text text-anchor="middle" x="459" y="-362.3" font-family="Times,serif" font-size="14.00">f</text>
</g>
<!-- Node_0&#45;&gt;Node_7 -->
<g id="edge17" class="edge">
<title>Node_0&#45;&gt;Node_7</title>
<path fill="none" stroke="black" d="M583.28,-440.36C558.4,-425.67 515.44,-400.31 487.12,-383.6"/>
<polygon fill="black" stroke="black" points="488.87,-380.57 478.48,-378.5 485.31,-386.6 488.87,-380.57"/>
<text text-anchor="middle" x="543" y="-405.8" font-family="Times,serif" font-size="14.00">f</text>
</g>
<!-- Node_53 -->
<g id="node25" class="node">
<title>Node_53</title>
<ellipse fill="none" stroke="black" cx="531" cy="-366" rx="27" ry="18"/>
<text text-anchor="middle" x="531" y="-362.3" font-family="Times,serif" font-size="14.00">g</text>
</g>
<!-- Node_0&#45;&gt;Node_53 -->
<g id="edge24" class="edge">
<title>Node_0&#45;&gt;Node_53</title>
<path fill="none" stroke="black" d="M590.13,-436.8C579.07,-423.75 562.96,-404.74 550.35,-389.85"/>
<polygon fill="black" stroke="black" points="552.89,-387.43 543.76,-382.06 547.55,-391.96 552.89,-387.43"/>
<text text-anchor="middle" x="577" y="-405.8" font-family="Times,serif" font-size="14.00">g</text>
</g>
<!-- Node_44 -->
<g id="node29" class="node">
<title>Node_44</title>
<ellipse fill="none" stroke="black" cx="603" cy="-366" rx="27" ry="18"/>
<text text-anchor="middle" x="603" y="-362.3" font-family="Times,serif" font-size="14.00">h</text>
</g>
<!-- Node_0&#45;&gt;Node_44 -->
<g id="edge28" class="edge">
<title>Node_0&#45;&gt;Node_44</title>
<path fill="none" stroke="black" d="M603,-434.8C603,-423.16 603,-407.55 603,-394.24"/>
<polygon fill="black" stroke="black" points="606.5,-394.18 603,-384.18 599.5,-394.18 606.5,-394.18"/>
<text text-anchor="middle" x="608" y="-405.8" font-family="Times,serif" font-size="14.00">h</text>
</g>
<!-- Node_15 -->
<g id="node34" class="node">
<title>Node_15</title>
<ellipse fill="none" stroke="black" cx="675" cy="-366" rx="27" ry="18"/>
<text text-anchor="middle" x="675" y="-362.3" font-family="Times,serif" font-size="14.00">l</text>
</g>
<!-- Node_0&#45;&gt;Node_15 -->
<g id="edge33" class="edge">
<title>Node_0&#45;&gt;Node_15</title>
<path fill="none" stroke="black" d="M615.87,-436.8C626.93,-423.75 643.04,-404.74 655.65,-389.85"/>
<polygon fill="black" stroke="black" points="658.45,-391.96 662.24,-382.06 653.11,-387.43 658.45,-391.96"/>
<text text-anchor="middle" x="646.5" y="-405.8" font-family="Times,serif" font-size="14.00">l</text>
</g>
<!-- Node_39 -->
<g id="node38" class="node">
<title>Node_39</title>
<ellipse fill="none" stroke="black" cx="747" cy="-366" rx="27" ry="18"/>
<text text-anchor="middle" x="747" y="-362.3" font-family="Times,serif" font-size="14.00">m</text>
</g>
<!-- Node_0&#45;&gt;Node_39 -->
<g id="edge37" class="edge">
<title>Node_0&#45;&gt;Node_39</title>
<path fill="none" stroke="black" d="M622.72,-440.36C647.6,-425.67 690.56,-400.31 718.88,-383.6"/>
<polygon fill="black" stroke="black" points="720.69,-386.6 727.52,-378.5 717.13,-380.57 720.69,-386.6"/>
<text text-anchor="middle" x="691" y="-405.8" font-family="Times,serif" font-size="14.00">m</text>
</g>
<!-- Node_34 -->
<g id="node43" class="node">
<title>Node_34</title>
<ellipse fill="none" stroke="black" cx="819" cy="-366" rx="27" ry="18"/>
<text text-anchor="middle" x="819" y="-362.3" font-family="Times,serif" font-size="14.00">s</text>
</g>
<!-- Node_0&#45;&gt;Node_34 -->
<g id="edge42" class="edge">
<title>Node_0&#45;&gt;Node_34</title>
<path fill="none" stroke="black" d="M626.72,-443.97C646.84,-437.06 676.44,-426.72 702,-417 738.34,-403.18 747.41,-399.64 783,-384 784.8,-383.21 786.65,-382.38 788.51,-381.54"/>
<polygon fill="black" stroke="black" points="790.16,-384.63 797.77,-377.26 787.22,-378.28 790.16,-384.63"/>
<text text-anchor="middle" x="745" y="-405.8" font-family="Times,serif" font-size="14.00">s</text>
</g>
<!-- Node_19 -->
<g id="node52" class="node">
<title>Node_19</title>
<ellipse fill="none" stroke="black" cx="905" cy="-366" rx="27" ry="18"/>
<text text-anchor="middle" x="905" y="-362.3" font-family="Times,serif" font-size="14.00">t</text>
</g>
<!-- Node_0&#45;&gt;Node_19 -->
<g id="edge51" class="edge">
<title>Node_0&#45;&gt;Node_19</title>
<path fill="none" stroke="black" d="M628.38,-446.76C658.34,-440.41 709.59,-429.06 753,-417 798.91,-404.24 809.78,-399 855,-384 860.44,-382.2 866.2,-380.26 871.81,-378.36"/>
<polygon fill="black" stroke="black" points="873.28,-381.56 881.62,-375.03 871.03,-374.93 873.28,-381.56"/>
<text text-anchor="middle" x="804.5" y="-405.8" font-family="Times,serif" font-size="14.00">t</text>
</g>
<!-- Node_27 -->
<g id="node57" class="node">
<title>Node_27</title>
<ellipse fill="none" stroke="black" cx="984" cy="-366" rx="27" ry="18"/>
<text text-anchor="middle" x="984" y="-362.3" font-family="Times,serif" font-size="14.00">w</text>
</g>
<!-- Node_0&#45;&gt;Node_27 -->
<g id="edge56" class="edge">
<title>Node_0&#45;&gt;Node_27</title>
<path fill="none" stroke="black" d="M629.39,-448.79C687.01,-441.34 827.98,-420.64 941,-384 944.76,-382.78 948.66,-381.4 952.51,-379.97"/>
<polygon fill="black" stroke="black" points="953.8,-383.23 961.88,-376.36 951.29,-376.69 953.8,-383.23"/>
<text text-anchor="middle" x="884.5" y="-405.8" font-family="Times,serif" font-size="14.00">w</text>
</g>
<!-- Node_24 -->
<g id="node3" class="node">
<title>Node_24</title>
<ellipse fill="none" stroke="black" cx="27" cy="-279" rx="27" ry="18"/>
<text text-anchor="middle" x="27" y="-275.3" font-family="Times,serif" font-size="14.00">e</text>
</g>
<!-- Node_11&#45;&gt;Node_24 -->
<g id="edge2" class="edge">
<title>Node_11&#45;&gt;Node_24</title>
<path fill="none" stroke="black" d="M86.13,-349.8C75.07,-336.75 58.96,-317.74 46.35,-302.85"/>
<polygon fill="black" stroke="black" points="48.89,-300.43 39.76,-295.06 43.55,-304.96 48.89,-300.43"/>
<text text-anchor="middle" x="72.5" y="-318.8" font-family="Times,serif" font-size="14.00">e</text>
</g>
<!-- Node_12 -->
<g id="node6" class="node">
<title>Node_12</title>
<ellipse fill="none" stroke="black" cx="99" cy="-279" rx="27" ry="18"/>
<text text-anchor="middle" x="99" y="-275.3" font-family="Times,serif" font-size="14.00">i</text>
</g>
<!-- Node_11&#45;&gt;Node_12 -->
<g id="edge5" class="edge">
<title>Node_11&#45;&gt;Node_12</title>
<path fill="none" stroke="black" d="M99,-347.8C99,-336.16 99,-320.55 99,-307.24"/>
<polygon fill="black" stroke="black" points="102.5,-307.18 99,-297.18 95.5,-307.18 102.5,-307.18"/>
<text text-anchor="middle" x="101.5" y="-318.8" font-family="Times,serif" font-size="14.00">i</text>
</g>
<!-- Node_25 -->
<g id="node4" class="node">
<title>Node_25</title>
<ellipse fill="none" stroke="black" cx="27" cy="-192" rx="27" ry="18"/>
<text text-anchor="middle" x="27" y="-188.3" font-family="Times,serif" font-size="14.00">a</text>
</g>
<!-- Node_24&#45;&gt;Node_25 -->
<g id="edge3" class="edge">
<title>Node_24&#45;&gt;Node_25</title>
<path fill="none" stroke="black" d="M27,-260.8C27,-249.16 27,-233.55 27,-220.24"/>
<polygon fill="black" stroke="black" points="30.5,-220.18 27,-210.18 23.5,-220.18 30.5,-220.18"/>
<text text-anchor="middle" x="31.5" y="-231.8" font-family="Times,serif" font-size="14.00">a</text>
</g>
<!-- Node_26 -->
<g id="node5" class="node">
<title>Node_26</title>
<ellipse fill="none" stroke="black" cx="27" cy="-105" rx="27" ry="18"/>
<text text-anchor="middle" x="27" y="-101.3" font-family="Times,serif" font-size="14.00">r</text>
</g>
<!-- Node_25&#45;&gt;Node_26 -->
<g id="edge4" class="edge">
<title>Node_25&#45;&gt;Node_26</title>
<path fill="none" stroke="black" d="M27,-173.8C27,-162.16 27,-146.55 27,-133.24"/>
<polygon fill="black" stroke="black" points="30.5,-133.18 27,-123.18 23.5,-133.18 30.5,-133.18"/>
<text text-anchor="middle" x="30.5" y="-144.8" font-family="Times,serif" font-size="14.00">r</text>
</g>
<!-- Node_13 -->
<g id="node7" class="node">
<title>Node_13</title>
<ellipse fill="none" stroke="black" cx="99" cy="-192" rx="27" ry="18"/>
<text text-anchor="middle" x="99" y="-188.3" font-family="Times,serif" font-size="14.00">r</text>
</g>
<!-- Node_12&#45;&gt;Node_13 -->
<g id="edge6" class="edge">
<title>Node_12&#45;&gt;Node_13</title>
<path fill="none" stroke="black" d="M99,-260.8C99,-249.16 99,-233.55 99,-220.24"/>
<polygon fill="black" stroke="black" points="102.5,-220.18 99,-210.18 95.5,-220.18 102.5,-220.18"/>
<text text-anchor="middle" x="102.5" y="-231.8" font-family="Times,serif" font-size="14.00">r</text>
</g>
<!-- Node_14 -->
<g id="node8" class="node">
<title>Node_14</title>
<ellipse fill="none" stroke="black" cx="99" cy="-105" rx="27" ry="18"/>
<text text-anchor="middle" x="99" y="-101.3" font-family="Times,serif" font-size="14.00">d</text>
</g>
<!-- Node_13&#45;&gt;Node_14 -->
<g id="edge7" class="edge">
<title>Node_13&#45;&gt;Node_14</title>
<path fill="none" stroke="black" d="M99,-173.8C99,-162.16 99,-146.55 99,-133.24"/>
<polygon fill="black" stroke="black" points="102.5,-133.18 99,-123.18 95.5,-133.18 102.5,-133.18"/>
<text text-anchor="middle" x="104" y="-144.8" font-family="Times,serif" font-size="14.00">d</text>
</g>
<!-- Node_2 -->
<g id="node10" class="node">
<title>Node_2</title>
<ellipse fill="none" stroke="black" cx="171" cy="-279" rx="27" ry="18"/>
<text text-anchor="middle" x="171" y="-275.3" font-family="Times,serif" font-size="14.00">a</text>
</g>
<!-- Node_1&#45;&gt;Node_2 -->
<g id="edge9" class="edge">
<title>Node_1&#45;&gt;Node_2</title>
<path fill="none" stroke="black" d="M199.89,-348.21C194.78,-336.14 187.79,-319.64 181.97,-305.89"/>
<polygon fill="black" stroke="black" points="185.1,-304.31 177.98,-296.47 178.65,-307.04 185.1,-304.31"/>
<text text-anchor="middle" x="196.5" y="-318.8" font-family="Times,serif" font-size="14.00">a</text>
</g>
<!-- Node_3 -->
<g id="node11" class="node">
<title>Node_3</title>
<ellipse fill="none" stroke="black" cx="171" cy="-192" rx="27" ry="18"/>
<text text-anchor="middle" x="171" y="-188.3" font-family="Times,serif" font-size="14.00">t</text>
</g>
<!-- Node_2&#45;&gt;Node_3 -->
<g id="edge10" class="edge">
<title>Node_2&#45;&gt;Node_3</title>
<path fill="none" stroke="black" d="M171,-260.8C171,-249.16 171,-233.55 171,-220.24"/>
<polygon fill="black" stroke="black" points="174.5,-220.18 171,-210.18 167.5,-220.18 174.5,-220.18"/>
<text text-anchor="middle" x="174.5" y="-231.8" font-family="Times,serif" font-size="14.00">t</text>
</g>
<!-- Node_5 -->
<g id="node13" class="node">
<title>Node_5</title>
<ellipse fill="none" stroke="black" cx="243" cy="-279" rx="27" ry="18"/>
<text text-anchor="middle" x="243" y="-275.3" font-family="Times,serif" font-size="14.00">o</text>
</g>
<!-- Node_4&#45;&gt;Node_5 -->
<g id="edge12" class="edge">
<title>Node_4&#45;&gt;Node_5</title>
<path fill="none" stroke="black" d="M302.13,-349.8C291.07,-336.75 274.96,-317.74 262.35,-302.85"/>
<polygon fill="black" stroke="black" points="264.89,-300.43 255.76,-295.06 259.55,-304.96 264.89,-300.43"/>
<text text-anchor="middle" x="288.5" y="-318.8" font-family="Times,serif" font-size="14.00">o</text>
</g>
<!-- Node_57 -->
<g id="node15" class="node">
<title>Node_57</title>
<ellipse fill="none" stroke="black" cx="315" cy="-279" rx="27" ry="18"/>
<text text-anchor="middle" x="315" y="-275.3" font-family="Times,serif" font-size="14.00">u</text>
</g>
<!-- Node_4&#45;&gt;Node_57 -->
<g id="edge14" class="edge">
<title>Node_4&#45;&gt;Node_57</title>
<path fill="none" stroke="black" d="M315,-347.8C315,-336.16 315,-320.55 315,-307.24"/>
<polygon fill="black" stroke="black" points="318.5,-307.18 315,-297.18 311.5,-307.18 318.5,-307.18"/>
<text text-anchor="middle" x="320" y="-318.8" font-family="Times,serif" font-size="14.00">u</text>
</g>
<!-- Node_6 -->
<g id="node14" class="node">
<title>Node_6</title>
<ellipse fill="none" stroke="black" cx="243" cy="-192" rx="27" ry="18"/>
<text text-anchor="middle" x="243" y="-188.3" font-family="Times,serif" font-size="14.00">g</text>
</g>
<!-- Node_5&#45;&gt;Node_6 -->
<g id="edge13" class="edge">
<title>Node_5&#45;&gt;Node_6</title>
<path fill="none" stroke="black" d="M243,-260.8C243,-249.16 243,-233.55 243,-220.24"/>
<polygon fill="black" stroke="black" points="246.5,-220.18 243,-210.18 239.5,-220.18 246.5,-220.18"/>
<text text-anchor="middle" x="248" y="-231.8" font-family="Times,serif" font-size="14.00">g</text>
</g>
<!-- Node_58 -->
<g id="node16" class="node">
<title>Node_58</title>
<ellipse fill="none" stroke="black" cx="315" cy="-192" rx="27" ry="18"/>
<text text-anchor="middle" x="315" y="-188.3" font-family="Times,serif" font-size="14.00">c</text>
</g>
<!-- Node_57&#45;&gt;Node_58 -->
<g id="edge15" class="edge">
<title>Node_57&#45;&gt;Node_58</title>
<path fill="none" stroke="black" d="M315,-260.8C315,-249.16 315,-233.55 315,-220.24"/>
<polygon fill="black" stroke="black" points="318.5,-220.18 315,-210.18 311.5,-220.18 318.5,-220.18"/>
<text text-anchor="middle" x="319" y="-231.8" font-family="Times,serif" font-size="14.00">c</text>
</g>
<!-- Node_59 -->
<g id="node17" class="node">
<title>Node_59</title>
<ellipse fill="none" stroke="black" cx="315" cy="-105" rx="27" ry="18"/>
<text text-anchor="middle" x="315" y="-101.3" font-family="Times,serif" font-size="14.00">k</text>
</g>
<!-- Node_58&#45;&gt;Node_59 -->
<g id="edge16" class="edge">
<title>Node_58&#45;&gt;Node_59</title>
<path fill="none" stroke="black" d="M315,-173.8C315,-162.16 315,-146.55 315,-133.24"/>
<polygon fill="black" stroke="black" points="318.5,-133.18 315,-123.18 311.5,-133.18 318.5,-133.18"/>
<text text-anchor="middle" x="319.5" y="-144.8" font-family="Times,serif" font-size="14.00">k</text>
</g>
<!-- Node_8 -->
<g id="node19" class="node">
<title>Node_8</title>
<ellipse fill="none" stroke="black" cx="387" cy="-279" rx="27" ry="18"/>
<text text-anchor="middle" x="387" y="-275.3" font-family="Times,serif" font-size="14.00">i</text>
</g>
<!-- Node_7&#45;&gt;Node_8 -->
<g id="edge18" class="edge">
<title>Node_7&#45;&gt;Node_8</title>
<path fill="none" stroke="black" d="M446.13,-349.8C435.07,-336.75 418.96,-317.74 406.35,-302.85"/>
<polygon fill="black" stroke="black" points="408.89,-300.43 399.76,-295.06 403.55,-304.96 408.89,-300.43"/>
<text text-anchor="middle" x="430.5" y="-318.8" font-family="Times,serif" font-size="14.00">i</text>
</g>
<!-- Node_31 -->
<g id="node22" class="node">
<title>Node_31</title>
<ellipse fill="none" stroke="black" cx="459" cy="-279" rx="27" ry="18"/>
<text text-anchor="middle" x="459" y="-275.3" font-family="Times,serif" font-size="14.00">r</text>
</g>
<!-- Node_7&#45;&gt;Node_31 -->
<g id="edge21" class="edge">
<title>Node_7&#45;&gt;Node_31</title>
<path fill="none" stroke="black" d="M459,-347.8C459,-336.16 459,-320.55 459,-307.24"/>
<polygon fill="black" stroke="black" points="462.5,-307.18 459,-297.18 455.5,-307.18 462.5,-307.18"/>
<text text-anchor="middle" x="462.5" y="-318.8" font-family="Times,serif" font-size="14.00">r</text>
</g>
<!-- Node_9 -->
<g id="node20" class="node">
<title>Node_9</title>
<ellipse fill="none" stroke="black" cx="387" cy="-192" rx="27" ry="18"/>
<text text-anchor="middle" x="387" y="-188.3" font-family="Times,serif" font-size="14.00">s</text>
</g>
<!-- Node_8&#45;&gt;Node_9 -->
<g id="edge19" class="edge">
<title>Node_8&#45;&gt;Node_9</title>
<path fill="none" stroke="black" d="M387,-260.8C387,-249.16 387,-233.55 387,-220.24"/>
<polygon fill="black" stroke="black" points="390.5,-220.18 387,-210.18 383.5,-220.18 390.5,-220.18"/>
<text text-anchor="middle" x="391" y="-231.8" font-family="Times,serif" font-size="14.00">s</text>
</g>
<!-- Node_10 -->
<g id="node21" class="node">
<title>Node_10</title>
<ellipse fill="none" stroke="black" cx="387" cy="-105" rx="27" ry="18"/>
<text text-anchor="middle" x="387" y="-101.3" font-family="Times,serif" font-size="14.00">h</text>
</g>
<!-- Node_9&#45;&gt;Node_10 -->
<g id="edge20" class="edge">
<title>Node_9&#45;&gt;Node_10</title>
<path fill="none" stroke="black" d="M387,-173.8C387,-162.16 387,-146.55 387,-133.24"/>
<polygon fill="black" stroke="black" points="390.5,-133.18 387,-123.18 383.5,-133.18 390.5,-133.18"/>
<text text-anchor="middle" x="392" y="-144.8" font-family="Times,serif" font-size="14.00">h</text>
</g>
<!-- Node_32 -->
<g id="node23" class="node">
<title>Node_32</title>
<ellipse fill="none" stroke="black" cx="459" cy="-192" rx="27" ry="18"/>
<text text-anchor="middle" x="459" y="-188.3" font-family="Times,serif" font-size="14.00">o</text>
</g>
<!-- Node_31&#45;&gt;Node_32 -->
<g id="edge22" class="edge">
<title>Node_31&#45;&gt;Node_32</title>
<path fill="none" stroke="black" d="M459,-260.8C459,-249.16 459,-233.55 459,-220.24"/>
<polygon fill="black" stroke="black" points="462.5,-220.18 459,-210.18 455.5,-220.18 462.5,-220.18"/>
<text text-anchor="middle" x="463.5" y="-231.8" font-family="Times,serif" font-size="14.00">o</text>
</g>
<!-- Node_33 -->
<g id="node24" class="node">
<title>Node_33</title>
<ellipse fill="none" stroke="black" cx="459" cy="-105" rx="27" ry="18"/>
<text text-anchor="middle" x="459" y="-101.3" font-family="Times,serif" font-size="14.00">g</text>
</g>
<!-- Node_32&#45;&gt;Node_33 -->
<g id="edge23" class="edge">
<title>Node_32&#45;&gt;Node_33</title>
<path fill="none" stroke="black" d="M459,-173.8C459,-162.16 459,-146.55 459,-133.24"/>
<polygon fill="black" stroke="black" points="462.5,-133.18 459,-123.18 455.5,-133.18 462.5,-133.18"/>
<text text-anchor="middle" x="464" y="-144.8" font-family="Times,serif" font-size="14.00">g</text>
</g>
<!-- Node_54 -->
<g id="node26" class="node">
<title>Node_54</title>
<ellipse fill="none" stroke="black" cx="531" cy="-279" rx="27" ry="18"/>
<text text-anchor="middle" x="531" y="-275.3" font-family="Times,serif" font-size="14.00">o</text>
</g>
<!-- Node_53&#45;&gt;Node_54 -->
<g id="edge25" class="edge">
<title>Node_53&#45;&gt;Node_54</title>
<path fill="none" stroke="black" d="M531,-347.8C531,-336.16 531,-320.55 531,-307.24"/>
<polygon fill="black" stroke="black" points="534.5,-307.18 531,-297.18 527.5,-307.18 534.5,-307.18"/>
<text text-anchor="middle" x="535.5" y="-318.8" font-family="Times,serif" font-size="14.00">o</text>
</g>
<!-- Node_55 -->
<g id="node27" class="node">
<title>Node_55</title>
<ellipse fill="none" stroke="black" cx="531" cy="-192" rx="27" ry="18"/>
<text text-anchor="middle" x="531" y="-188.3" font-family="Times,serif" font-size="14.00">a</text>
</g>
<!-- Node_54&#45;&gt;Node_55 -->
<g id="edge26" class="edge">
<title>Node_54&#45;&gt;Node_55</title>
<path fill="none" stroke="black" d="M531,-260.8C531,-249.16 531,-233.55 531,-220.24"/>
<polygon fill="black" stroke="black" points="534.5,-220.18 531,-210.18 527.5,-220.18 534.5,-220.18"/>
<text text-anchor="middle" x="535.5" y="-231.8" font-family="Times,serif" font-size="14.00">a</text>
</g>
<!-- Node_56 -->
<g id="node28" class="node">
<title>Node_56</title>
<ellipse fill="none" stroke="black" cx="531" cy="-105" rx="27" ry="18"/>
<text text-anchor="middle" x="531" y="-101.3" font-family="Times,serif" font-size="14.00">t</text>
</g>
<!-- Node_55&#45;&gt;Node_56 -->
<g id="edge27" class="edge">
<title>Node_55&#45;&gt;Node_56</title>
<path fill="none" stroke="black" d="M531,-173.8C531,-162.16 531,-146.55 531,-133.24"/>
<polygon fill="black" stroke="black" points="534.5,-133.18 531,-123.18 527.5,-133.18 534.5,-133.18"/>
<text text-anchor="middle" x="534.5" y="-144.8" font-family="Times,serif" font-size="14.00">t</text>
</g>
<!-- Node_45 -->
<g id="node30" class="node">
<title>Node_45</title>
<ellipse fill="none" stroke="black" cx="603" cy="-279" rx="27" ry="18"/>
<text text-anchor="middle" x="603" y="-275.3" font-family="Times,serif" font-size="14.00">o</text>
</g>
<!-- Node_44&#45;&gt;Node_45 -->
<g id="edge29" class="edge">
<title>Node_44&#45;&gt;Node_45</title>
<path fill="none" stroke="black" d="M603,-347.8C603,-336.16 603,-320.55 603,-307.24"/>
<polygon fill="black" stroke="black" points="606.5,-307.18 603,-297.18 599.5,-307.18 606.5,-307.18"/>
<text text-anchor="middle" x="607.5" y="-318.8" font-family="Times,serif" font-size="14.00">o</text>
</g>
<!-- Node_46 -->
<g id="node31" class="node">
<title>Node_46</title>
<ellipse fill="none" stroke="black" cx="603" cy="-192" rx="27" ry="18"/>
<text text-anchor="middle" x="603" y="-188.3" font-family="Times,serif" font-size="14.00">r</text>
</g>
<!-- Node_45&#45;&gt;Node_46 -->
<g id="edge30" class="edge">
<title>Node_45&#45;&gt;Node_46</title>
<path fill="none" stroke="black" d="M603,-260.8C603,-249.16 603,-233.55 603,-220.24"/>
<polygon fill="black" stroke="black" points="606.5,-220.18 603,-210.18 599.5,-220.18 606.5,-220.18"/>
<text text-anchor="middle" x="606.5" y="-231.8" font-family="Times,serif" font-size="14.00">r</text>
</g>
<!-- Node_47 -->
<g id="node32" class="node">
<title>Node_47</title>
<ellipse fill="none" stroke="black" cx="603" cy="-105" rx="27" ry="18"/>
<text text-anchor="middle" x="603" y="-101.3" font-family="Times,serif" font-size="14.00">s</text>
</g>
<!-- Node_46&#45;&gt;Node_47 -->
<g id="edge31" class="edge">
<title>Node_46&#45;&gt;Node_47</title>
<path fill="none" stroke="black" d="M603,-173.8C603,-162.16 603,-146.55 603,-133.24"/>
<polygon fill="black" stroke="black" points="606.5,-133.18 603,-123.18 599.5,-133.18 606.5,-133.18"/>
<text text-anchor="middle" x="607" y="-144.8" font-family="Times,serif" font-size="14.00">s</text>
</g>
<!-- Node_48 -->
<g id="node33" class="node">
<title>Node_48</title>
<ellipse fill="none" stroke="black" cx="603" cy="-18" rx="27" ry="18"/>
<text text-anchor="middle" x="603" y="-14.3" font-family="Times,serif" font-size="14.00">e</text>
</g>
<!-- Node_47&#45;&gt;Node_48 -->
<g id="edge32" class="edge">
<title>Node_47&#45;&gt;Node_48</title>
<path fill="none" stroke="black" d="M603,-86.8C603,-75.16 603,-59.55 603,-46.24"/>
<polygon fill="black" stroke="black" points="606.5,-46.18 603,-36.18 599.5,-46.18 606.5,-46.18"/>
<text text-anchor="middle" x="607.5" y="-57.8" font-family="Times,serif" font-size="14.00">e</text>
</g>
<!-- Node_16 -->
<g id="node35" class="node">
<title>Node_16</title>
<ellipse fill="none" stroke="black" cx="675" cy="-279" rx="27" ry="18"/>
<text text-anchor="middle" x="675" y="-275.3" font-family="Times,serif" font-size="14.00">i</text>
</g>
<!-- Node_15&#45;&gt;Node_16 -->
<g id="edge34" class="edge">
<title>Node_15&#45;&gt;Node_16</title>
<path fill="none" stroke="black" d="M675,-347.8C675,-336.16 675,-320.55 675,-307.24"/>
<polygon fill="black" stroke="black" points="678.5,-307.18 675,-297.18 671.5,-307.18 678.5,-307.18"/>
<text text-anchor="middle" x="677.5" y="-318.8" font-family="Times,serif" font-size="14.00">i</text>
</g>
<!-- Node_17 -->
<g id="node36" class="node">
<title>Node_17</title>
<ellipse fill="none" stroke="black" cx="675" cy="-192" rx="27" ry="18"/>
<text text-anchor="middle" x="675" y="-188.3" font-family="Times,serif" font-size="14.00">o</text>
</g>
<!-- Node_16&#45;&gt;Node_17 -->
<g id="edge35" class="edge">
<title>Node_16&#45;&gt;Node_17</title>
<path fill="none" stroke="black" d="M675,-260.8C675,-249.16 675,-233.55 675,-220.24"/>
<polygon fill="black" stroke="black" points="678.5,-220.18 675,-210.18 671.5,-220.18 678.5,-220.18"/>
<text text-anchor="middle" x="679.5" y="-231.8" font-family="Times,serif" font-size="14.00">o</text>
</g>
<!-- Node_18 -->
<g id="node37" class="node">
<title>Node_18</title>
<ellipse fill="none" stroke="black" cx="675" cy="-105" rx="27" ry="18"/>
<text text-anchor="middle" x="675" y="-101.3" font-family="Times,serif" font-size="14.00">n</text>
</g>
<!-- Node_17&#45;&gt;Node_18 -->
<g id="edge36" class="edge">
<title>Node_17&#45;&gt;Node_18</title>
<path fill="none" stroke="black" d="M675,-173.8C675,-162.16 675,-146.55 675,-133.24"/>
<polygon fill="black" stroke="black" points="678.5,-133.18 675,-123.18 671.5,-133.18 678.5,-133.18"/>
<text text-anchor="middle" x="680" y="-144.8" font-family="Times,serif" font-size="14.00">n</text>
</g>
<!-- Node_40 -->
<g id="node39" class="node">
<title>Node_40</title>
<ellipse fill="none" stroke="black" cx="747" cy="-279" rx="27" ry="18"/>
<text text-anchor="middle" x="747" y="-275.3" font-family="Times,serif" font-size="14.00">o</text>
</g>
<!-- Node_39&#45;&gt;Node_40 -->
<g id="edge38" class="edge">
<title>Node_39&#45;&gt;Node_40</title>
<path fill="none" stroke="black" d="M747,-347.8C747,-336.16 747,-320.55 747,-307.24"/>
<polygon fill="black" stroke="black" points="750.5,-307.18 747,-297.18 743.5,-307.18 750.5,-307.18"/>
<text text-anchor="middle" x="751.5" y="-318.8" font-family="Times,serif" font-size="14.00">o</text>
</g>
<!-- Node_41 -->
<g id="node40" class="node">
<title>Node_41</title>
<ellipse fill="none" stroke="black" cx="747" cy="-192" rx="27" ry="18"/>
<text text-anchor="middle" x="747" y="-188.3" font-family="Times,serif" font-size="14.00">u</text>
</g>
<!-- Node_40&#45;&gt;Node_41 -->
<g id="edge39" class="edge">
<title>Node_40&#45;&gt;Node_41</title>
<path fill="none" stroke="black" d="M747,-260.8C747,-249.16 747,-233.55 747,-220.24"/>
<polygon fill="black" stroke="black" points="750.5,-220.18 747,-210.18 743.5,-220.18 750.5,-220.18"/>
<text text-anchor="middle" x="752" y="-231.8" font-family="Times,serif" font-size="14.00">u</text>
</g>
<!-- Node_42 -->
<g id="node41" class="node">
<title>Node_42</title>
<ellipse fill="none" stroke="black" cx="747" cy="-105" rx="27" ry="18"/>
<text text-anchor="middle" x="747" y="-101.3" font-family="Times,serif" font-size="14.00">s</text>
</g>
<!-- Node_41&#45;&gt;Node_42 -->
<g id="edge40" class="edge">
<title>Node_41&#45;&gt;Node_42</title>
<path fill="none" stroke="black" d="M747,-173.8C747,-162.16 747,-146.55 747,-133.24"/>
<polygon fill="black" stroke="black" points="750.5,-133.18 747,-123.18 743.5,-133.18 750.5,-133.18"/>
<text text-anchor="middle" x="751" y="-144.8" font-family="Times,serif" font-size="14.00">s</text>
</g>
<!-- Node_43 -->
<g id="node42" class="node">
<title>Node_43</title>
<ellipse fill="none" stroke="black" cx="747" cy="-18" rx="27" ry="18"/>
<text text-anchor="middle" x="747" y="-14.3" font-family="Times,serif" font-size="14.00">e</text>
</g>
<!-- Node_42&#45;&gt;Node_43 -->
<g id="edge41" class="edge">
<title>Node_42&#45;&gt;Node_43</title>
<path fill="none" stroke="black" d="M747,-86.8C747,-75.16 747,-59.55 747,-46.24"/>
<polygon fill="black" stroke="black" points="750.5,-46.18 747,-36.18 743.5,-46.18 750.5,-46.18"/>
<text text-anchor="middle" x="751.5" y="-57.8" font-family="Times,serif" font-size="14.00">e</text>
</g>
<!-- Node_49 -->
<g id="node44" class="node">
<title>Node_49</title>
<ellipse fill="none" stroke="black" cx="819" cy="-279" rx="27" ry="18"/>
<text text-anchor="middle" x="819" y="-275.3" font-family="Times,serif" font-size="14.00">h</text>
</g>
<!-- Node_34&#45;&gt;Node_49 -->
<g id="edge43" class="edge">
<title>Node_34&#45;&gt;Node_49</title>
<path fill="none" stroke="black" d="M819,-347.8C819,-336.16 819,-320.55 819,-307.24"/>
<polygon fill="black" stroke="black" points="822.5,-307.18 819,-297.18 815.5,-307.18 822.5,-307.18"/>
<text text-anchor="middle" x="824" y="-318.8" font-family="Times,serif" font-size="14.00">h</text>
</g>
<!-- Node_35 -->
<g id="node48" class="node">
<title>Node_35</title>
<ellipse fill="none" stroke="black" cx="891" cy="-279" rx="27" ry="18"/>
<text text-anchor="middle" x="891" y="-275.3" font-family="Times,serif" font-size="14.00">n</text>
</g>
<!-- Node_34&#45;&gt;Node_35 -->
<g id="edge47" class="edge">
<title>Node_34&#45;&gt;Node_35</title>
<path fill="none" stroke="black" d="M831.87,-349.8C842.93,-336.75 859.04,-317.74 871.65,-302.85"/>
<polygon fill="black" stroke="black" points="874.45,-304.96 878.24,-295.06 869.11,-300.43 874.45,-304.96"/>
<text text-anchor="middle" x="865" y="-318.8" font-family="Times,serif" font-size="14.00">n</text>
</g>
<!-- Node_50 -->
<g id="node45" class="node">
<title>Node_50</title>
<ellipse fill="none" stroke="black" cx="819" cy="-192" rx="27" ry="18"/>
<text text-anchor="middle" x="819" y="-188.3" font-family="Times,serif" font-size="14.00">e</text>
</g>
<!-- Node_49&#45;&gt;Node_50 -->
<g id="edge44" class="edge">
<title>Node_49&#45;&gt;Node_50</title>
<path fill="none" stroke="black" d="M819,-260.8C819,-249.16 819,-233.55 819,-220.24"/>
<polygon fill="black" stroke="black" points="822.5,-220.18 819,-210.18 815.5,-220.18 822.5,-220.18"/>
<text text-anchor="middle" x="823.5" y="-231.8" font-family="Times,serif" font-size="14.00">e</text>
</g>
<!-- Node_51 -->
<g id="node46" class="node">
<title>Node_51</title>
<ellipse fill="none" stroke="black" cx="819" cy="-105" rx="27" ry="18"/>
<text text-anchor="middle" x="819" y="-101.3" font-family="Times,serif" font-size="14.00">e</text>
</g>
<!-- Node_50&#45;&gt;Node_51 -->
<g id="edge45" class="edge">
<title>Node_50&#45;&gt;Node_51</title>
<path fill="none" stroke="black" d="M819,-173.8C819,-162.16 819,-146.55 819,-133.24"/>
<polygon fill="black" stroke="black" points="822.5,-133.18 819,-123.18 815.5,-133.18 822.5,-133.18"/>
<text text-anchor="middle" x="823.5" y="-144.8" font-family="Times,serif" font-size="14.00">e</text>
</g>
<!-- Node_52 -->
<g id="node47" class="node">
<title>Node_52</title>
<ellipse fill="none" stroke="black" cx="819" cy="-18" rx="27" ry="18"/>
<text text-anchor="middle" x="819" y="-14.3" font-family="Times,serif" font-size="14.00">p</text>
</g>
<!-- Node_51&#45;&gt;Node_52 -->
<g id="edge46" class="edge">
<title>Node_51&#45;&gt;Node_52</title>
<path fill="none" stroke="black" d="M819,-86.8C819,-75.16 819,-59.55 819,-46.24"/>
<polygon fill="black" stroke="black" points="822.5,-46.18 819,-36.18 815.5,-46.18 822.5,-46.18"/>
<text text-anchor="middle" x="824" y="-57.8" font-family="Times,serif" font-size="14.00">p</text>
</g>
<!-- Node_36 -->
<g id="node49" class="node">
<title>Node_36</title>
<ellipse fill="none" stroke="black" cx="891" cy="-192" rx="27" ry="18"/>
<text text-anchor="middle" x="891" y="-188.3" font-family="Times,serif" font-size="14.00">a</text>
</g>
<!-- Node_35&#45;&gt;Node_36 -->
<g id="edge48" class="edge">
<title>Node_35&#45;&gt;Node_36</title>
<path fill="none" stroke="black" d="M891,-260.8C891,-249.16 891,-233.55 891,-220.24"/>
<polygon fill="black" stroke="black" points="894.5,-220.18 891,-210.18 887.5,-220.18 894.5,-220.18"/>
<text text-anchor="middle" x="895.5" y="-231.8" font-family="Times,serif" font-size="14.00">a</text>
</g>
<!-- Node_37 -->
<g id="node50" class="node">
<title>Node_37</title>
<ellipse fill="none" stroke="black" cx="891" cy="-105" rx="27" ry="18"/>
<text text-anchor="middle" x="891" y="-101.3" font-family="Times,serif" font-size="14.00">k</text>
</g>
<!-- Node_36&#45;&gt;Node_37 -->
<g id="edge49" class="edge">
<title>Node_36&#45;&gt;Node_37</title>
<path fill="none" stroke="black" d="M891,-173.8C891,-162.16 891,-146.55 891,-133.24"/>
<polygon fill="black" stroke="black" points="894.5,-133.18 891,-123.18 887.5,-133.18 894.5,-133.18"/>
<text text-anchor="middle" x="895.5" y="-144.8" font-family="Times,serif" font-size="14.00">k</text>
</g>
<!-- Node_38 -->
<g id="node51" class="node">
<title>Node_38</title>
<ellipse fill="none" stroke="black" cx="891" cy="-18" rx="27" ry="18"/>
<text text-anchor="middle" x="891" y="-14.3" font-family="Times,serif" font-size="14.00">e</text>
</g>
<!-- Node_37&#45;&gt;Node_38 -->
<g id="edge50" class="edge">
<title>Node_37&#45;&gt;Node_38</title>
<path fill="none" stroke="black" d="M891,-86.8C891,-75.16 891,-59.55 891,-46.24"/>
<polygon fill="black" stroke="black" points="894.5,-46.18 891,-36.18 887.5,-46.18 894.5,-46.18"/>
<text text-anchor="middle" x="895.5" y="-57.8" font-family="Times,serif" font-size="14.00">e</text>
</g>
<!-- Node_20 -->
<g id="node53" class="node">
<title>Node_20</title>
<ellipse fill="none" stroke="black" cx="963" cy="-279" rx="27" ry="18"/>
<text text-anchor="middle" x="963" y="-275.3" font-family="Times,serif" font-size="14.00">i</text>
</g>
<!-- Node_19&#45;&gt;Node_20 -->
<g id="edge52" class="edge">
<title>Node_19&#45;&gt;Node_20</title>
<path fill="none" stroke="black" d="M915.64,-349.41C924.25,-336.79 936.53,-318.79 946.43,-304.28"/>
<polygon fill="black" stroke="black" points="949.49,-306.01 952.23,-295.78 943.71,-302.07 949.49,-306.01"/>
<text text-anchor="middle" x="940.5" y="-318.8" font-family="Times,serif" font-size="14.00">i</text>
</g>
<!-- Node_21 -->
<g id="node54" class="node">
<title>Node_21</title>
<ellipse fill="none" stroke="black" cx="963" cy="-192" rx="27" ry="18"/>
<text text-anchor="middle" x="963" y="-188.3" font-family="Times,serif" font-size="14.00">g</text>
</g>
<!-- Node_20&#45;&gt;Node_21 -->
<g id="edge53" class="edge">
<title>Node_20&#45;&gt;Node_21</title>
<path fill="none" stroke="black" d="M963,-260.8C963,-249.16 963,-233.55 963,-220.24"/>
<polygon fill="black" stroke="black" points="966.5,-220.18 963,-210.18 959.5,-220.18 966.5,-220.18"/>
<text text-anchor="middle" x="968" y="-231.8" font-family="Times,serif" font-size="14.00">g</text>
</g>
<!-- Node_22 -->
<g id="node55" class="node">
<title>Node_22</title>
<ellipse fill="none" stroke="black" cx="963" cy="-105" rx="27" ry="18"/>
<text text-anchor="middle" x="963" y="-101.3" font-family="Times,serif" font-size="14.00">e</text>
</g>
<!-- Node_21&#45;&gt;Node_22 -->
<g id="edge54" class="edge">
<title>Node_21&#45;&gt;Node_22</title>
<path fill="none" stroke="black" d="M963,-173.8C963,-162.16 963,-146.55 963,-133.24"/>
<polygon fill="black" stroke="black" points="966.5,-133.18 963,-123.18 959.5,-133.18 966.5,-133.18"/>
<text text-anchor="middle" x="967.5" y="-144.8" font-family="Times,serif" font-size="14.00">e</text>
</g>
<!-- Node_23 -->
<g id="node56" class="node">
<title>Node_23</title>
<ellipse fill="none" stroke="black" cx="963" cy="-18" rx="27" ry="18"/>
<text text-anchor="middle" x="963" y="-14.3" font-family="Times,serif" font-size="14.00">r</text>
</g>
<!-- Node_22&#45;&gt;Node_23 -->
<g id="edge55" class="edge">
<title>Node_22&#45;&gt;Node_23</title>
<path fill="none" stroke="black" d="M963,-86.8C963,-75.16 963,-59.55 963,-46.24"/>
<polygon fill="black" stroke="black" points="966.5,-46.18 963,-36.18 959.5,-46.18 966.5,-46.18"/>
<text text-anchor="middle" x="966.5" y="-57.8" font-family="Times,serif" font-size="14.00">r</text>
</g>
<!-- Node_28 -->
<g id="node58" class="node">
<title>Node_28</title>
<ellipse fill="none" stroke="black" cx="1035" cy="-279" rx="27" ry="18"/>
<text text-anchor="middle" x="1035" y="-275.3" font-family="Times,serif" font-size="14.00">o</text>
</g>
<!-- Node_27&#45;&gt;Node_28 -->
<g id="edge57" class="edge">
<title>Node_27&#45;&gt;Node_28</title>
<path fill="none" stroke="black" d="M993.59,-349.01C1001.07,-336.55 1011.59,-319.01 1020.16,-304.74"/>
<polygon fill="black" stroke="black" points="1023.31,-306.29 1025.45,-295.92 1017.3,-302.69 1023.31,-306.29"/>
<text text-anchor="middle" x="1017.5" y="-318.8" font-family="Times,serif" font-size="14.00">o</text>
</g>
<!-- Node_29 -->
<g id="node59" class="node">
<title>Node_29</title>
<ellipse fill="none" stroke="black" cx="1035" cy="-192" rx="27" ry="18"/>
<text text-anchor="middle" x="1035" y="-188.3" font-family="Times,serif" font-size="14.00">l</text>
</g>
<!-- Node_28&#45;&gt;Node_29 -->
<g id="edge58" class="edge">
<title>Node_28&#45;&gt;Node_29</title>
<path fill="none" stroke="black" d="M1035,-260.8C1035,-249.16 1035,-233.55 1035,-220.24"/>
<polygon fill="black" stroke="black" points="1038.5,-220.18 1035,-210.18 1031.5,-220.18 1038.5,-220.18"/>
<text text-anchor="middle" x="1037.5" y="-231.8" font-family="Times,serif" font-size="14.00">l</text>
</g>
<!-- Node_30 -->
<g id="node60" class="node">
<title>Node_30</title>
<ellipse fill="none" stroke="black" cx="1035" cy="-105" rx="27" ry="18"/>
<text text-anchor="middle" x="1035" y="-101.3" font-family="Times,serif" font-size="14.00">f</text>
</g>
<!-- Node_29&#45;&gt;Node_30 -->
<g id="edge59" class="edge">
<title>Node_29&#45;&gt;Node_30</title>
<path fill="none" stroke="black" d="M1035,-173.8C1035,-162.16 1035,-146.55 1035,-133.24"/>
<polygon fill="black" stroke="black" points="1038.5,-133.18 1035,-123.18 1031.5,-133.18 1038.5,-133.18"/>
<text text-anchor="middle" x="1038" y="-144.8" font-family="Times,serif" font-size="14.00">f</text>
</g>
</g>
</svg>
